<?xml version="1.0" encoding="UTF-8" standalone="no"?>
<!-- Created with Inkscape (http://www.inkscape.org/) -->
<svg id="svg2" xmlns:rdf="http://www.w3.org/1999/02/22-rdf-syntax-ns#" xmlns="http://www.w3.org/2000/svg" viewBox="0 0 585.76 256.71" version="1.1" xmlns:cc="http://creativecommons.org/ns#" xmlns:dc="http://purl.org/dc/elements/1.1/">
<metadata id="metadata7">
<rdf:RDF>
<cc:Work rdf:about="">
<dc:format>image/svg+xml</dc:format>
<dc:type rdf:resource="http://purl.org/dc/dcmitype/StillImage"/>
<dc:title/>
</cc:Work>
</rdf:RDF>
</metadata>
<g id="layer1" transform="translate(-102.83614,-668.40125)" font-style="normal" font-stretch="normal" font-variant="normal" font-weight="normal">
<flowRoot id="flowRoot2985" style="writing-mode:lr-tb;letter-spacing:0px;text-anchor:start;word-spacing:0px;text-align:start;" line-height="125%" xml:space="preserve" font-size="40px" transform="translate(0,552.36218)" font-family="Secret Code" fill="#000000"><flowRegion id="flowRegion2987"><rect id="rect2989" y="0.98464" width="801.05" x="1.0102" height="499.02"/></flowRegion><flowPara id="flowPara2991"/></flowRoot>
<g id="text2993" style="writing-mode:lr-tb;letter-spacing:0px;text-anchor:start;word-spacing:0px;text-align:start;" line-height="125%" font-size="66.95066833px" transform="matrix(0.78379795,0,0,1,85.052466,0)" font-family="MoolBoran">
<path id="path3009" fill="#774f38" d="m66.331,924.86-43.642,0,0-226.06,126.76,0-1.9614,22.802-81.155,1.2259,0,80.174,78.458,0.98072-1.9614,20.84-76.496,1.7163z"/>
<path id="path3011" fill="#e08e79" d="m224.47,924.86-42.907,0,0-247.63,42.907-8.8265z"/>
<path id="path3013" fill="#f1d4af" d="m314.7,773.83,0,101.26c-0.00006,8.99,1.4302,15.651,4.2907,19.982,2.8604,4.3316,7.7231,6.4973,14.588,6.4973,10.785-1.3957,26.041-2.7857,34.259-7.704l-0.17857-120.04h43.152v151.03h-38.493c-26.469-0.002-52.886-0.002-77.714-0.002-4.9854-1.8797-7.0363-4.0433-10.796-7.721-3.7595-3.6777-6.7425-8.3361-8.9491-13.975-2.2066-5.6391-3.31-12.136-3.3099-19.492v-109.84z"/>
<path id="path3015" fill="#ece5ce" d="m610.63,863.81c-0.00017,9.9707-1.5938,18.879-4.781,26.725-3.1875,7.8458-8.0911,14.507-14.711,19.982-6.62,5.4757-14.997,9.6438-25.131,12.504-10.134,2.8604-18.658,1.8367-32.715,1.8367-4.5768-0.00001-13.639,0.16348-19.687,0-18.636,0-37.032,0.004-53.516,0v-224.34c8.663-0.9805,18.552-1.716,29.667-2.2066,11.115-0.49013,21.576-0.73531,31.383-0.73554,11.932,0.00023,22.802,1.0218,32.609,3.0648,9.8071,2.0434,18.184,5.2307,25.131,9.562,6.9466,4.3317,12.3,9.8892,16.059,16.672,3.7593,6.7835,5.639,14.915,5.6392,24.395-0.00016,7.6825-1.0626,14.425-3.1873,20.227-2.1251,5.8028-4.9446,10.87-8.4587,15.201-3.5144,4.3317-7.6416,7.8459-12.382,10.543-4.7403,2.6971-9.6439,4.6994-14.711,6.0069v0.73554c8.6629,1.7981,16.059,4.5768,22.189,8.3361,6.1294,3.7596,11.156,8.2137,15.079,13.362,3.9227,5.1489,6.824,10.951,8.7039,17.408,1.8796,6.4565,2.8194,13.362,2.8196,20.718zm-54.43-107.39c-0.00012-13.403-3.637-22.761-10.911-28.073-7.2738-5.312-17.531-7.9682-30.77-7.9684-1.9615,0.00021-3.8821,0.0411-5.7617,0.12259-1.8798,0.0819-3.5552,0.20453-5.0262,0.36778v72.819h14.466c5.067,0.00013,10.134-0.49023,15.201-1.4711,5.067-0.98059,8.9898-2.2065,11.769-3.6777,1.3075-0.81713,2.6152-1.9204,3.9229-3.3099,1.3075-1.3892,2.4926-3.3098,3.5551-5.7618,1.0623-2.4516,1.9205-5.5573,2.5744-9.3169,0.6537-3.7593,0.9806-8.336,0.98072-13.73zm9.8072,104.69c-0.00013-14.711-4.1273-25.826-12.382-33.345-8.2545-7.5188-20.309-11.278-36.164-11.278h-13.73v86.794c1.3076,0.16348,2.4109,0.28607,3.3099,0.36777,0.89892,0.0817,1.8388,0.16348,2.8196,0.24518,0.98064,0.0817,2.2066,0.12261,3.6777,0.12259,1.471,0.00002,3.5959,0.00002,6.3747,0,2.6152,0.00002,5.5165-0.12257,8.7039-0.36777,3.1872-0.24516,6.2929-0.57206,9.3169-0.98072,3.0238-0.40861,5.8025-0.93984,8.3362-1.5937,2.5334-0.65379,4.5357-1.3893,6.0069-2.2066,1.471-0.9807,3.0238-2.2883,4.6584-3.9229,1.6344-1.6345,3.1464-3.882,4.5358-6.7425,1.3892-2.8604,2.4925-6.4564,3.3099-10.788,0.81714-4.3315,1.2258-9.7663,1.2259-16.305z"/>
<path id="path3017" fill="#c5e0dc" d="m735.67,925.11c-33.602-0.24737-46.342-0.35204-71.314-0.24737-11.769-0.00001-14.774-2.3564-20.507-8.0888-7.0752-7.0752-10.175-18.47-10.175-33.345-0.00001-7.8457,1.0216-14.711,3.0648-20.595,2.0432-5.8843,5.3122-10.747,9.8072-14.588,4.495-3.8411,10.298-6.7832,17.408-8.8265,7.1102-2.0431,15.814-3.2281,26.112-3.5551l25.989-0.73554v-21.821c-0.00009-5.8842-1.5938-10.216-4.781-12.995-3.1874-2.7786-8.6223-4.1679-16.305-4.1681-5.394,0.00013-11.646,0.65394-18.756,1.9614-7.1103,1.3078-14.588,3.5144-22.434,6.6199l-5.8843-15.692c5.2305-2.2882,10.665-4.5357,16.305-6.7425,5.6391-2.2065,11.36-4.1679,17.163-5.8843,5.8025-1.7161,11.687-3.1055,17.653-4.1681,5.966-1.0623,11.891-1.5935,17.776-1.5937,6.7015,0.00015,12.668,0.61311,17.898,1.8389,5.2304,1.226,9.6028,3.3101,13.117,6.2521,3.5141,2.9423,6.2111,6.8652,8.091,11.769,1.8796,4.9038,2.8194,10.952,2.8196,18.143v69.631c0.40733,19.507,8.2111,21.584,10.564,28.432,5.3217,20.899-19.346,18.15-33.611,18.398zm-17.89-29.67c-0.16355-0.65379-0.32701-2.3292-0.49036-5.0262-0.16355-2.697-0.32701-6.1295-0.49036-10.298-0.16355-4.168-0.28614-8.9082-0.36778-14.22-0.0818-5.3122-0.12268-10.91-0.12259-16.795-10.625,0.00008-18.634,0.61303-24.028,1.8389-5.394,1.226-8.7448,2.7379-10.052,4.5358-0.65387,0.65388-1.1851,1.8798-1.5937,3.6777-0.4087,1.7981-0.7356,3.8004-0.98073,6.0069-0.24523,2.2067-0.40869,4.495-0.49036,6.8651-0.0818,2.3701-0.12265,4.5359-0.12259,6.4973-0.00006,6.8651,0.9398,12.423,2.8196,16.672,1.8797,4.2498,5.0261,6.3747,9.4395,6.3747,4.7401,0.00002,9.2759-0.57207,13.608-1.7163,4.3314-1.1442,8.6221-2.6152,12.872-4.4132z"/>
</g>
</g>
</svg>
